<?xml version="1.0" encoding="UTF-8"?>
<svg id="Layer_1" xmlns="http://www.w3.org/2000/svg" version="1.1" viewBox="0 0 1111.5 1141.19">
  <!-- Generator: Adobe Illustrator 30.0.0, SVG Export Plug-In . SVG Version: 2.1.1 Build 91)  -->
  <defs>
    <style>
      .st0 {
        fill: #b8a053;
      }

      .st1 {
        fill: #fff;
      }

      .st2 {
        fill: none;
        stroke: #fff;
        stroke-width: 2px;
      }

      .st3 {
        fill: #b59e53;
      }
    </style>
  </defs>
  <polygon class="st3" points="513.71 1108.02 549.34 1135.76 556.84 1141.19 599.45 1108.02 599.91 566.71 513.25 566.71 513.71 1108.02"/>
  <g>
    <path class="st1" d="M499.11,363.86c-.2.12-.38.26-.57.38l.46.33.11-.71Z"/>
    <path class="st1" d="M382.42,280.81h.02c.17-.1.34-.22.51-.33l-.54.33Z"/>
    <path class="st1" d="M244.32,894.3c-.38-.12-.74-.25-1.12-.37v.34l1.12.03Z"/>
    <path class="st1" d="M163.97,221.96l.33-.3c-.12-.14-.23-.29-.35-.43v.73Z"/>
    <path class="st1" d="M1012.03,330.04c-1.82-5.14-2.74-10.5-2.74-15.95,0-11.2,3.95-22.1,11.13-30.7l.23-.12,60.78-69.04-.18-2.91-187.65-165.42-2.57-.13-156.32,112.29L557.19,1.54h-2.72l-177.68,156.52L220.47,45.77l-2.57.13L30.26,211.32l-.18,2.91,60.9,69.02c7.25,8.62,11.24,19.57,11.24,30.84,0,5.45-.92,10.81-2.73,15.94C36.65,394.34,2.06,479.25,2.06,569.16c0,150.62,96.66,281.93,240.53,326.74l2.67-1.96v-99.27l-1.01-1.77-6.55-3.89c-86.3-38.33-137.83-120.55-137.83-219.93,0-68.31,28.89-133.97,79.24-180.14l-.27-.3.69-.14c13.39-22.52,20.47-48.28,20.47-74.48,0-33.54-11.65-66.18-32.85-92.15l58.07-51.62,76.05,54.32c-27.37,29.04-42.41,66.89-42.41,106.88,0,44.54,19.06,86.95,52.34,116.52v539.39l.67,1.52.67.47,92.81,60.75,2.89-1.89V391.74l-1.03-1.78-6.04-3.48c-20.27-7.41-44.42-22.97-44.42-55.02,0-19.43,9.55-37.32,25.63-48.14l111.63,80.21c.21.21.49.42.83.66-30.43,20.36-48.49,54.08-48.49,90.82h1.38l.33,2.17h215.05l2.04-2.17c0-36.85-18.16-70.64-48.73-90.98l111.95-81.22c16.53,10.77,26.37,28.87,26.37,48.66,0,29.08-21.75,53.84-50.59,57.59l-1.26.67-.57.64-.53,1.38v663.49l2.88,1.89,93.63-60.64.44-.11,1.56-2V447.98c33.28-29.57,52.34-71.98,52.34-116.53,0-40.06-15.08-77.97-42.54-107.02l75.85-54.18,58.26,51.79c-21.11,25.94-32.71,58.53-32.71,91.98,0,26.96,1.43,46.72,20.55,74.59l.6.04-.26.28c50.37,46.17,79.25,111.83,79.25,180.14,0,96.51-57,184.18-145.22,223.36l-.5.32-.4.34-.72,1.57v99.6l2.23,2.08.78-.09c70.47-21.69,130.88-64.5,174.68-123.79,43.81-59.3,66.96-129.61,66.96-203.32,0-89.9-34.59-174.8-97.41-239.12ZM555.59,287.33l-97.43-70.06,97.43-85.39,97.42,85.39-97.42,70.06Z"/>
    <path class="st0" d="M163.97,221.96l.33-.3c-.12-.14-.23-.29-.35-.43v.72Z"/>
    <path class="st0" d="M382.42,280.81h.02c.17-.1.34-.23.51-.34l-.53.34Z"/>
    <path class="st0" d="M1013.82,328.93c-1.64-4.79-2.47-9.78-2.47-14.85,0-10.71,3.77-21.12,10.62-29.35l.23-.11,60.78-69.04-.37-5.81-187.65-165.42-5.13-.26-154.99,111.34L558.55,0h-5.44l-176.44,155.44L221.67,44.1l-5.12.26L28.9,209.77l-.37,5.81,60.93,69.06c6.88,8.17,10.7,18.66,10.7,29.44,0,5.07-.83,10.05-2.47,14.83C34.69,393.58,0,478.87,0,569.16c0,73.95,23.18,144.52,67.04,204.08,43.84,59.54,104.33,102.63,174.94,124.63l5.35-3.93v-99.27l-2.01-3.54-6.34-3.78-.43-.23c-85.54-37.99-136.61-119.51-136.61-218.05,0-67.74,28.64-132.84,78.58-178.62l-.58-.64,1.38-.26c13.58-22.84,20.76-48.96,20.76-75.53,0-33.35-11.36-65.83-32.08-91.91l55.38-49.23,72.8,52c-26.71,29.19-41.36,66.84-41.36,106.57,0,44.82,19.05,87.51,52.34,117.44v538.47l1.12,2.83,1.44,1.05,92.81,60.75,5.77-3.77V391.74l-2.05-3.56-5.72-3.32-.65-.31c-19.65-7.18-43.07-22.22-43.07-53.08,0-18.26,8.75-35.12,23.55-45.62l108.95,78.28c-29.55,20.89-47.01,54.43-47.01,90.89h3.13l.65,4.23h215.06l3.52-4.23h.58c0-36.56-17.54-70.15-47.21-91.03l108.42-78.66c15.24,10.46,24.26,27.53,24.26,46.14,0,28.05-20.98,51.93-48.8,55.55l-2.54,1.34-.57.63-1.05,2.75v663.49l5.76,3.78,93.63-60.61.11-.03.02-.03.17-.08-.04-.09,2.96-3.8V448.9c33.29-29.93,52.34-72.62,52.34-117.45,0-39.79-14.7-77.5-41.49-106.71l72.6-51.86,55.58,49.4c-20.63,26.06-31.94,58.47-31.94,91.74,0,27.35,1.46,47.39,20.91,75.75l1.18.09-.54.59c49.94,45.78,78.58,110.89,78.58,178.62,0,95.69-56.53,182.63-144,221.48l-1,.63-.4.34-1.45,3.13v99.6l3.78,4.11.34.03,1.55-.17c70.9-21.82,131.67-64.88,175.74-124.53,44.07-59.66,67.37-130.39,67.37-204.55,0-90.28-34.68-175.57-97.68-240.23ZM867.19,894.3l-.34-.03v-99.6l.4-.34c89.05-39.55,146.45-127.83,146.45-225.25,0-69.07-28.99-134.97-79.92-181.66l-.03.03c-19.02-27.73-20.19-47.58-20.19-73.43,0-33.72,11.88-66.34,33.51-92.2l-60.98-54.2-79.23,56.59.13-.06c27.95,28.72,43.6,67.22,43.6,107.3,0,44.3-19.1,86.45-52.4,115.66l.06.09v547.17l-.44.11-93.94,60.75V391.74l.57-.64c29.96-3.9,52.38-29.42,52.38-59.64,0-20.73-10.68-40-28.26-50.99l-.93.34-114.84,83.31c31.28,19.62,50.3,53.94,50.3,90.88l.02.11h-215.06l.35-.11c0-36.87,18.95-71.13,50.13-90.77l-1.54-1.1c-.81-.51-1.6-1.02-1.5-1.07l1.5,1.07s.01,0,.02.01l-114.59-82.33c-17.26,11.05-27.74,30.12-27.74,50.64,0,30.21,21.11,47.93,45.77,56.95l5.72,3.33v656.49l-92.81-60.75-.1-.11V447.2l.07-.09c-33.31-29.21-52.41-71.36-52.41-115.66,0-40.08,15.64-78.58,43.6-107.3l-.2.06-79.24-56.59-60.78,54.03c21.72,25.87,33.65,58.58,33.65,92.37,0,25.85-6.98,51.21-20.18,73.43l-.04-.03c-50.92,46.69-79.91,112.59-79.91,181.66,0,97.42,50,182.26,139.05,221.81l6.33,3.78v99.27C101.04,849.65,4.12,718.1,4.12,569.16c0-88.93,34.84-174.33,97.05-237.9h.06c2.01-5.49,3.05-11.31,3.05-17.17,0-11.77-4.16-23.16-11.73-32.16l-60.93-69.06L219.27,47.45l157.66,113.25L555.83,3.09l178.75,157.61,157.66-113.25,187.65,165.42-60.78,69.04-.14.02c-7.57,9.01-11.73,20.4-11.73,32.16,0,5.86,1.03,11.68,3.05,17.18h.05c62.21,63.56,97.05,148.96,97.05,237.9,0,149.34-97.43,281.21-240.2,325.14Z"/>
    <path class="st0" d="M454.85,217.43l100.74,72.44,100.73-72.44-100.73-88.29-100.74,88.29ZM555.59,284.79l-94.12-67.68,94.12-82.49,94.12,82.49-94.12,67.68Z"/>
    <path class="st0" d="M947.55,221.23c-.16.2-.32.4-.49.6l.14.13.34-.72Z"/>
    <path class="st0" d="M612.18,364.57l.61-.44c-.13-.09-.26-.18-.4-.26l-.21.71Z"/>
    <path class="st0" d="M497.02,363.15l1.52,1.09c.09-.06-.71-.58-1.52-1.09Z"/>
    <path class="st1" d="M947.55,221.23c-.16.2-.32.4-.49.6l.14.13.34-.73Z"/>
    <path class="st1" d="M612.18,364.57l.61-.44c-.13-.09-.26-.18-.4-.27l-.22.71Z"/>
    <rect class="st0" x="164.3" y="447.1" width="783.25" height="92.92"/>
    <rect class="st2" x="164.3" y="447.1" width="783.25" height="92.92"/>
    <path class="st0" d="M663.86,477.74c0,59.89-48.55,108.44-108.45,108.44s-108.44-48.55-108.44-108.44"/>
    <path class="st1" d="M242.51,513.7c3.76-.06,6.91-1.24,9.5-3.64,2.71-2.53,4.07-5.74,4.07-9.69l-.12-17.47h6.6l.12,16.79c0,5.37-1.48,9.75-4.44,13.26-2.9,3.52-6.79,5.49-11.66,5.86-.92-1.24-2.28-2.97-4.07-5.12"/>
    <path class="st1" d="M286.38,499.44c-.06-5.06-.06-7.83-.06-8.33,0-1.36-1.85-3.76-4.02-3.76-2.84,0-5,2.65-5,6.73,0,2.96,2.1,5.37,4.69,5.37h4.38ZM301.19,505.43h-8.88c-1.91,7.65-7.53,12.71-15.37,13.39-.92-1.23-2.28-2.96-4.01-5.12,5.61,0,10.49-3.15,12.46-8.27h-4.32c-6.11,0-10.3-5.18-10.3-11.04,0-6.97,5.18-11.6,11.54-11.6,6.73,0,10.61,3.83,10.61,9.75v6.91h8.27v5.99Z"/>
    <rect class="st1" x="299.97" y="499.44" width="14.25" height="5.99"/>
    <rect class="st1" x="313.05" y="499.44" width="14.26" height="5.99"/>
    <rect class="st1" x="326.13" y="499.44" width="14.26" height="5.99"/>
    <rect class="st1" x="339.22" y="499.44" width="14.25" height="5.99"/>
    <rect class="st1" x="352.3" y="499.44" width="14.26" height="5.99"/>
    <rect class="st1" x="365.38" y="499.44" width="14.26" height="5.99"/>
    <rect class="st1" x="378.47" y="499.44" width="14.25" height="5.99"/>
    <rect class="st1" x="391.55" y="499.44" width="14.25" height="5.99"/>
    <rect class="st1" x="404.63" y="499.44" width="14.26" height="5.99"/>
    <rect class="st1" x="417.72" y="499.44" width="14.25" height="5.99"/>
    <rect class="st1" x="430.8" y="499.44" width="14.25" height="5.99"/>
    <rect class="st1" x="443.89" y="499.44" width="14.26" height="5.99"/>
    <rect class="st1" x="456.97" y="499.44" width="14.26" height="5.99"/>
    <rect class="st1" x="470.06" y="499.44" width="14.25" height="5.99"/>
    <rect class="st1" x="483.14" y="499.44" width="14.25" height="5.99"/>
    <rect class="st1" x="496.22" y="499.44" width="14.26" height="5.99"/>
    <rect class="st1" x="509.31" y="499.44" width="14.25" height="5.99"/>
    <rect class="st1" x="522.39" y="499.44" width="14.25" height="5.99"/>
    <rect class="st1" x="535.47" y="499.44" width="14.26" height="5.99"/>
    <rect class="st1" x="548.55" y="499.44" width="14.26" height="5.99"/>
    <rect class="st1" x="561.64" y="499.44" width="14.25" height="5.99"/>
    <rect class="st1" x="574.72" y="499.44" width="14.25" height="5.99"/>
    <rect class="st1" x="587.8" y="499.44" width="14.26" height="5.99"/>
    <rect class="st1" x="600.89" y="499.44" width="14.25" height="5.99"/>
    <rect class="st1" x="613.98" y="499.44" width="14.25" height="5.99"/>
    <path class="st1" d="M666.74,499.44c-.06-1.91-.3-3.58-.8-5-1.05-3.46-3.03-5.37-5.93-5.68-.49-.06-.99-.12-1.42-.12-5.37,0-9.94,3.58-13.64,10.8h21.78ZM684.26,505.43h-57.21l.07-5.99h7.9l-.12-10.67h6.48v7.34c2.29-5,5.56-8.64,9.81-10.98,3.27-1.79,6.23-2.59,9.01-2.28,7.66.8,11.98,6.29,12.9,16.6h11.17v5.99Z"/>
    <rect class="st1" x="682.61" y="499.44" width="14.25" height="5.99"/>
    <path class="st1" d="M714.08,477.97h-5.99v-6.23h5.99v6.23ZM725.49,505.43h-6.11c-1.85,0-3.46-.8-4.75-2.34-.68-.86-1.23-1.73-1.54-2.66-1.05,3.03-4.25,4.94-7.65,5h-9.75v-5.99h7.28c1.17,0,2.22-.3,3.21-.98,1.29-.8,1.91-1.91,1.91-3.33l-.12-12.22h6.48c0,2.28.06,5.49.19,9.62,0,2.16.62,3.89,1.91,5.18,1.05,1.17,2.17,1.73,3.39,1.73h5.56v5.99Z"/>
    <rect class="st1" x="724.39" y="499.44" width="14.26" height="5.99"/>
    <rect class="st1" x="737.47" y="499.44" width="14.26" height="5.99"/>
    <rect class="st1" x="750.56" y="499.44" width="14.25" height="5.99"/>
    <rect class="st1" x="763.64" y="499.44" width="14.26" height="5.99"/>
    <rect class="st1" x="776.72" y="499.44" width="14.26" height="5.99"/>
    <rect class="st1" x="789.81" y="499.44" width="14.25" height="5.99"/>
    <rect class="st1" x="802.89" y="499.44" width="14.25" height="5.99"/>
    <rect class="st1" x="815.97" y="499.44" width="14.26" height="5.99"/>
    <rect class="st1" x="829.06" y="499.44" width="14.25" height="5.99"/>
    <path class="st1" d="M864.85,493.89c0-1.91-.55-3.52-1.6-4.69-.93-1.05-2.1-1.54-3.4-1.54-1.41,0-2.53.49-3.39,1.54-.93,1.17-1.36,2.71-1.36,4.69s.56,3.52,1.61,4.69c.92,1.05,2.1,1.54,3.39,1.54,2.71,0,4.75-2.28,4.75-6.23M871.27,493.83c0,7.16-4.07,11.6-10.98,11.6h-18.14v-5.99h7.46c-.86-1.79-1.29-3.64-1.29-5.61,0-7.16,4.13-11.6,11.23-11.6,3.58,0,6.48,1.23,8.76,3.7,1.98,2.22,2.96,4.88,2.96,7.9"/>
  </g>
</svg>